<?xml version="1.0" encoding="UTF-8" standalone="no"?>
<svg
   version="1.1"
   id="Layer_1"
   x="0px"
   y="0px"
   width="1211.7078"
   viewBox="0 0 1211.7078 246.73569"
   enable-background="new 0 0 1220 254"
   xml:space="preserve"
   sodipodi:docname="KULTIVATE Logo (full) _ dark _ transparent bg.svg"
   height="246.73569"
   inkscape:version="1.4.4 (dcaf3e7, 2026-05-05)"
   xmlns:inkscape="http://www.inkscape.org/namespaces/inkscape"
   xmlns:sodipodi="http://sodipodi.sourceforge.net/DTD/sodipodi-0.dtd"
   xmlns="http://www.w3.org/2000/svg"
   xmlns:svg="http://www.w3.org/2000/svg"><defs
   id="defs12" /><sodipodi:namedview
   id="namedview12"
   pagecolor="#ffffff"
   bordercolor="#000000"
   borderopacity="0.25"
   inkscape:showpageshadow="2"
   inkscape:pageopacity="0.0"
   inkscape:pagecheckerboard="0"
   inkscape:deskcolor="#d1d1d1"
   showguides="true"
   inkscape:zoom="0.79182435"
   inkscape:cx="633.34753"
   inkscape:cy="66.302583"
   inkscape:window-width="1920"
   inkscape:window-height="1022"
   inkscape:window-x="0"
   inkscape:window-y="30"
   inkscape:window-maximized="0"
   inkscape:current-layer="Layer_1" />

<path
   fill="#020202"
   opacity="1"
   stroke="none"
   d="m 52.665136,185.44085 c -10e-4,20.64997 -10e-4,40.80421 -10e-4,61.29824 -17.53173,0 -34.941392,0 -52.664136,0 C 0,173.2491 0,99.831038 0,26.013003 c 17.309045,0 34.695482,0 52.649293,0 0,28.706749 0,57.572598 0,86.433397 30.653138,-0.0328 53.332687,-17.394521 66.573297,-50.575979 18.09287,0 36.21072,0 55.02865,0 -2.11003,39.215899 -21.99112,66.381719 -54.80585,84.922609 9.48873,6.44352 19.43312,12.52648 28.63527,19.57805 22.53021,17.2648 37.47704,39.42285 41.84948,67.9748 0.22689,1.48161 0.51444,2.96714 0.57148,4.45858 0.0949,2.4823 0.0259,4.97086 0.0259,7.88392 -18.24508,0 -36.62424,0 -55.27092,0 -3.6268,-21.66939 -18.10102,-35.15766 -35.754878,-46.03821 -13.883282,-8.55663 -27.94579,-16.82265 -41.940671,-25.19773 -1.365711,-0.81729 -2.81567,-1.4938 -4.894806,-2.58703 0,4.51005 0,8.29489 -0.001,12.57544 z"
   id="path2"
   style="fill:#1b2728;fill-opacity:1" />
<path
   fill="#020202"
   opacity="1"
   stroke="none"
   d="m 898.53895,65.605017 c 38.93872,13.094666 60.3595,42.707183 60.42536,83.239563 0.0496,30.497 0.0126,60.99411 0.014,91.49118 6e-5,1.99015 -6e-5,3.98029 -6e-5,6.3454 -17.00897,0 -33.72723,0 -50.82214,0 0,-2.60002 4.3e-4,-5.05028 6e-5,-7.50053 -0.004,-29.99762 0.0155,-59.99526 -0.0213,-89.99283 -0.0242,-19.73622 -13.20563,-34.97256 -32.80762,-38.03773 -20.68652,-3.23474 -40.06744,7.6744 -45.78705,26.0673 -1.11505,3.58569 -1.48584,7.5294 -1.50055,11.3107 -0.11804,30.33052 -0.0681,60.66168 -0.0695,90.99266 -7e-5,2.3105 0,4.621 0,7.22516 -17.29114,0 -34.19855,0 -51.41663,0 0,-4.05441 10e-4,-7.86699 -1.8e-4,-11.67955 -0.011,-28.4977 0.0144,-56.99547 -0.0422,-85.49307 -0.0904,-45.52462 32.36316,-82.026793 77.64825,-87.470794 14.92914,-1.794723 29.56989,-0.862487 44.37958,3.502541 z"
   id="path3"
   style="fill:#1b2728;fill-opacity:1" />
<path
   fill="#010101"
   opacity="1"
   stroke="none"
   d="m 226.8506,61.252273 c 4.80774,-7.86e-4 9.11767,-7.86e-4 14.16133,-7.86e-4 0,2.002373 3e-5,3.751664 -2e-5,5.500962 -6.4e-4,33.992121 -0.0325,67.984291 0.0139,101.976351 0.0178,13.03211 7.87364,23.633 19.71667,26.90616 11.78348,3.25672 24.78012,-1.67534 30.85871,-12.7362 2.37094,-4.31426 3.65969,-9.77254 3.70666,-14.7262 0.32211,-33.98888 0.18393,-67.98211 0.19385,-101.973944 4.6e-4,-1.476136 9e-5,-2.952271 9e-5,-4.703133 17.31021,0 34.22317,0 51.40009,0 0.0902,1.411995 0.24365,2.697212 0.24411,3.982491 0.0129,34.158741 0.0815,68.317666 -0.009,102.476186 -0.0989,37.15465 -22.72104,66.61968 -58.17456,76.01775 -35.00769,9.27992 -72.29081,-5.7027 -90.08345,-36.43059 -5.67197,-9.7955 -8.98679,-20.5945 -9.08287,-31.87161 -0.31801,-37.32177 -0.15293,-74.64767 -0.16048,-111.971979 -1.2e-4,-0.64444 0.15945,-1.28891 0.31198,-2.444672 12.16716,0 24.28638,0 36.9034,-7.86e-4 z"
   id="path4"
   style="fill:#1b2728;fill-opacity:1" />
<path
   fill="#030303"
   opacity="1"
   stroke="none"
   d="m 765.62764,113.98528 c 0.71606,24.04341 -4.53425,45.87477 -19.46711,64.55712 -5.59668,7.00184 -12.16864,13.23615 -18.42163,19.69881 -13.90088,14.36687 -27.85644,28.68108 -41.83923,42.96834 -7.15363,7.30946 -12.88867,7.37166 -19.91821,0.16316 -18.14411,-18.60602 -36.13038,-37.36691 -54.36316,-55.8853 -14.37989,-14.60525 -23.19348,-32.26633 -24.42023,-52.33436 -1.46869,-24.02657 -0.34668,-48.211502 -0.34668,-72.636391 16.1543,0 32.72473,0 50.02496,0 0,1.759942 -7.3e-4,3.514374 0,5.268815 0.007,17.160209 0.0705,34.320656 0.002,51.480566 -0.0474,11.94565 4.03277,22.02258 12.53991,30.51723 8.8338,8.82081 17.32392,17.98591 27.47894,28.58065 1.08075,-1.8701 1.80176,-3.87436 3.13776,-5.30389 7.50678,-8.03261 15.0603,-16.02718 22.79401,-23.84059 8.05548,-8.13858 11.9779,-17.85196 11.98706,-29.22632 0.0139,-17.32681 0.0181,-34.653638 0.0262,-51.980451 8e-4,-1.785759 1.2e-4,-3.571518 1.2e-4,-5.56726 17.12903,0 33.70356,0 50.78486,0 0,17.82151 0,35.431427 0,53.539871 z"
   id="path5"
   style="fill:#1b2728;fill-opacity:1" />
<path
   fill="#020202"
   opacity="1"
   stroke="none"
   d="m 1186.8973,61.094233 c 8.4792,0.0027 16.4585,0.0027 24.8481,0.0027 0,17.102058 0,33.978104 0,51.563247 -3.8111,0 -7.7285,-0.004 -11.6458,8.6e-4 -10.1599,0.0138 -20.3203,0.10916 -30.4795,0.0297 -14.6547,-0.11466 -25.5059,6.45402 -33.0495,18.73244 -12.4134,20.20453 -6.3024,49.00521 13.3984,60.20864 5.3844,3.06197 12.2222,4.56955 18.4875,4.87832 14.2727,0.70338 28.6038,0.22193 43.2111,0.22193 0,16.6157 0,33.01746 0,49.96058 -9.708,0 -19.33,0.21943 -28.9378,-0.056 -11.7922,-0.33807 -23.8258,0.25423 -35.3114,-1.91005 -37.1339,-6.99718 -65.659,-39.93335 -68.7528,-77.80131 -2.5456,-31.15902 5.3888,-58.90449 27.8744,-81.253928 15.975,-15.878456 35.7017,-24.04956 58.3811,-24.517814 7.1561,-0.147751 14.3173,-0.04835 21.9762,-0.05933 z"
   id="path6"
   style="fill:#1b2728;fill-opacity:1" />
<path
   fill="#040404"
   opacity="1"
   stroke="none"
   d="m 483.39164,246.65685 c -0.72156,-1.7935 -1.2207,-3.52661 -1.22247,-5.26019 -0.0414,-40.65949 -0.029,-81.31904 -0.0266,-121.97857 9e-5,-1.7916 0,-3.58319 0,-5.71434 -15.70557,0 -30.96561,0 -46.62793,0 0,-17.52979 0,-34.717153 0,-52.171018 45.5329,0 90.94962,0 136.70224,0 0,17.159706 0,34.247757 0,51.773358 -12.57153,0 -25.16345,0 -38.38654,0 0,44.60625 0,88.78365 0,133.41092 -17.08038,0 -33.53253,0 -50.43875,-0.0602 z"
   id="path7"
   style="fill:#1b2728;fill-opacity:1" />
<path
   fill="#010101"
   opacity="1"
   stroke="none"
   d="m 1039.0974,202.38456 c -4e-4,14.97618 -4e-4,29.45235 -4e-4,44.30112 -17.1578,0 -34.0284,0 -51.31098,0 0,-44.58602 0,-88.991 0,-133.85561 -8.80469,0 -17.2193,0 -25.57641,0 -5.00867,-17.152712 -9.88929,-33.866663 -14.89979,-51.025507 43.57844,0 86.89458,0 130.59348,0 0,16.664268 0,33.509048 0,50.833627 -12.7885,0 -25.5203,0 -38.8055,0 0,30.06476 0,59.65555 -4e-4,89.74637 z"
   id="path8"
   style="fill:#1b2728;fill-opacity:1" />
<path
   fill="#020302"
   opacity="1"
   stroke="none"
   d="m 361.98268,168.78709 c -0.002,-35.96091 -0.002,-71.431725 -0.002,-107.294129 17.35165,0 34.38364,0 52.0076,0 0,1.837456 2.1e-4,3.611802 0,5.386147 -0.004,33.314392 -0.0106,66.628772 -0.009,99.943152 7e-4,18.3687 11.01425,29.49748 29.48386,29.70981 7.81039,0.0898 15.62265,0.015 23.72912,0.015 0,16.60856 0,32.87182 0,49.53796 -24.21387,1.47754 -48.09024,1.36578 -69.64761,-12.53082 -23.40405,-15.08709 -35.02225,-36.59134 -35.56201,-64.76709 z"
   id="path9"
   style="fill:#1b2728;fill-opacity:1" />
<path
   fill="#06f5f0"
   opacity="1"
   stroke="none"
   d="m 841.34498,177.50533 c 2.25574,-16.18448 14.05982,-24.36029 26.46002,-24.20526 15.13764,0.18921 26.32202,10.7487 26.66681,26.66897 0.32624,15.06501 -12.9259,27.19596 -27.89087,26.44503 -14.84765,-0.74504 -25.57306,-12.81321 -25.23596,-28.90874 z"
   id="path10" />
<path
   fill="#e2419d"
   opacity="1"
   stroke="none"
   d="m 1183.9183,130.55428 c 11.9518,3.87494 19.4176,12.51187 19.819,23.97539 0.3688,10.53465 -4.0308,19.10112 -13.407,24.40593 -9.5615,5.40971 -21.019,4.24186 -29.4315,-2.52477 -8.2875,-6.66606 -11.6312,-18.43767 -8.1394,-28.65488 3.6782,-10.76323 12.8085,-17.66917 23.8309,-17.88133 2.3079,-0.0444 4.6238,0.34076 7.328,0.67966 z"
   id="path11" />
<path
   fill="#e4519a"
   opacity="1"
   stroke="none"
   d="m 589.35011,39.332402 c -6.50763,-12.688307 -3.58972,-26.634657 6.88739,-34.2133801 10.61175,-7.676125 24.38037,-6.626465 33.68439,2.567927 10.52966,10.4055751 10.03918,27.9636521 -1.05658,37.8264071 -11.13398,9.896736 -28.40015,8.322605 -37.57355,-3.4334 -0.61261,-0.785049 -1.15912,-1.621727 -1.94165,-2.747554 z"
   id="path12" />
</svg>
