<?xml version="1.0" encoding="UTF-8" standalone="no"?>
<svg
   version="1.1"
   id="Layer_1"
   x="0px"
   y="0px"
   width="1961.8475"
   viewBox="0 0 1961.8475 666"
   enable-background="new 0 0 1962 666"
   xml:space="preserve"
   sodipodi:docname="KUTLIVATE Logo - new version 8 - dunkel + magenta (schmal - transparent background).svg"
   height="666"
   inkscape:version="1.4.4 (dcaf3e7, 2026-05-05)"
   xmlns:inkscape="http://www.inkscape.org/namespaces/inkscape"
   xmlns:sodipodi="http://sodipodi.sourceforge.net/DTD/sodipodi-0.dtd"
   xmlns="http://www.w3.org/2000/svg"
   xmlns:svg="http://www.w3.org/2000/svg"><defs
   id="defs7" /><sodipodi:namedview
   id="namedview7"
   pagecolor="#ffffff"
   bordercolor="#000000"
   borderopacity="0.25"
   inkscape:showpageshadow="2"
   inkscape:pageopacity="0.0"
   inkscape:pagecheckerboard="0"
   inkscape:deskcolor="#d1d1d1"
   inkscape:zoom="0.42777708"
   inkscape:cx="1029.7419"
   inkscape:cy="824.02731"
   inkscape:window-width="1493"
   inkscape:window-height="944"
   inkscape:window-x="157"
   inkscape:window-y="30"
   inkscape:window-maximized="0"
   inkscape:current-layer="Layer_1" />

<path
   fill="#1b2628"
   opacity="1"
   stroke="none"
   d="m 158.49599,0 c 0.86755,87.428703 1.26645,174.85741 1.66664,262.57101 46.1897,-1.8085 86.89181,-17.62776 123.94573,-43.43071 38.02752,-26.48092 61.23334,-63.30879 73.57516,-107.84538 55.57312,0 111.31076,0 167.78131,0 -1.86633,13.16248 -3.14831,26.20308 -5.63537,39.00963 -8.11597,41.79129 -22.96717,81.05563 -48.18817,115.56068 -28.09311,38.43448 -62.17975,70.60428 -104.45585,93.39402 -6.89288,3.71576 -7.24035,6.16552 -0.6557,10.38507 13.14029,8.42047 26.78382,16.06763 39.79322,24.67825 42.21222,27.93945 80.53067,60.35165 110.71658,101.31836 27.26337,37.00049 44.68054,78.48456 51.9057,123.94898 2.39533,15.07293 3.25964,30.38903 4.92163,46.00201 C 518.94378,666 463.92287,666 408.43414,665.59228 c -3.29916,-10.58184 -5.33679,-21.06048 -9.10345,-30.87567 -13.99466,-36.46704 -38.12335,-65.59515 -69.40373,-88.13055 -25.42858,-18.3197 -52.35388,-34.63141 -79.12923,-50.9928 -27.73549,-16.94803 -56.08089,-32.89874 -84.19332,-49.22748 -1.86207,-1.08154 -4.01107,-1.66909 -7.63975,-3.14056 0,75.16205 0,148.96838 0,222.77478 C 105.98823,666 53.011784,666 0,666 0,444.12231 0,222.2446 0,0 52.651639,0 105.3395,0 158.49599,0 Z"
   id="path2" />
<path
   fill="#e0419c"
   opacity="1"
   stroke="none"
   d="m 1520.433,666 c -1.5461,-0.33685 -2.6022,-0.79388 -3.705,-0.99042 -6.1862,-1.10309 -11.7345,-3.28924 -16.3242,-7.88592 -50.9767,-51.05323 -102.1502,-101.91095 -152.9614,-153.12802 -17.949,-18.09238 -34.8882,-37.18219 -52.5905,-55.52497 -17.1728,-17.79416 -27.4573,-39.54092 -36.4239,-62.0412 -8.8421,-22.18774 -14.8628,-45.15506 -17.2594,-68.98053 -0.5827,-5.79315 -1.0926,-11.62155 -1.1316,-17.43716 -0.4151,-61.8219 -0.7292,-123.64449 -1.0625,-185.46692 -0.01,-0.97385 0.099,-1.9483 0.1689,-3.24107 50.8998,0 101.6087,0 152.8213,0 0,2.13892 0,4.09332 2e-4,6.04772 0.039,45.33059 -0.1894,90.66386 0.2649,135.99029 0.1584,15.77441 1.6631,31.56463 3.1641,47.2893 2.1138,22.14215 13.647,39.46149 28.741,55.07688 30.6878,31.74771 61.0088,63.84961 91.5781,95.71252 4.5992,4.79401 9.7209,9.08673 14.9726,13.95584 2.5763,-2.64041 5.8105,-5.91299 8.9992,-9.22952 28.6422,-29.79013 57.3179,-59.54846 85.8827,-89.4126 6.7923,-7.10119 13.688,-14.19555 19.6433,-21.97629 4.7805,-6.24563 9.2892,-13.12051 12.0272,-20.42508 6.7871,-18.10613 11.8668,-36.7319 10.5751,-57.14416 -31.0975,-0.54196 -62.1459,-1.08307 -94.1145,-1.64023 -0.5668,-51.45483 -1.1308,-102.65663 -1.7025,-154.57036 129.868,0 259.4497,0 389.5001,0.011 0.4685,51.69846 0.4685,103.38602 -10e-5,155.54224 C 1914.756,267 1868.4844,267 1821.9098,267 c -0.6425,9.3432 -1.4685,18.11697 -1.8094,26.90955 -1.1086,28.59314 -5.7137,56.55764 -15.1712,83.59405 -10.4879,29.98187 -24.8476,57.76261 -47.3792,80.71851 -21.8225,22.2334 -43.3759,44.73657 -65.466,66.70056 -44.4222,44.16882 -89.1695,88.01068 -133.6568,132.11456 -4.515,4.47601 -9.6991,6.81171 -15.7104,7.93982 -1.27,0.23828 -2.5023,0.6767 -3.7521,1.02295 -6.0211,0 -12.0424,0 -18.5317,0 z"
   id="path3" />
<path
   fill="#1b2628"
   opacity="1"
   stroke="none"
   d="m 930.43329,666 c -0.46863,-132.78943 -0.46863,-265.57883 -0.46863,-398.79053 -46.91931,0 -93.64887,0 -140.68665,0 0,-52.14778 0,-103.87477 0,-155.90585 136.62964,0 273.34439,0 410.65869,0 -0.5566,51.0925 -1.1142,102.28178 -1.6773,153.97891 -38.6358,0.59284 -76.7075,1.17703 -115.2576,1.76859 -0.6274,132.86627 -1.2535,265.44461 -1.9585,398.48593 C 1030.9438,666 980.92285,666 930.43329,666 Z"
   id="path4" />
<path
   fill="#1b2628"
   opacity="1"
   stroke="none"
   d="m 781.43329,666 c -10.4892,-2.65472 -20.53242,-5.22687 -30.52667,-7.97723 -74.17146,-20.41199 -131.18872,-61.88874 -163.2201,-133.6662 -12.27722,-27.51145 -17.5957,-56.62497 -17.69465,-86.66556 -0.29259,-88.81772 -0.46216,-177.63583 -0.65985,-266.45386 -0.0441,-19.8278 -0.006,-39.65578 -0.006,-59.86004 51.42304,0 102.12951,0 153.45563,0 0,1.71275 -0.007,3.48717 10e-4,5.2615 0.40185,84.98633 0.68102,169.97351 1.28467,254.9584 0.17864,25.14356 1.12896,50.28562 2.00805,75.41846 0.43463,12.42557 5.90631,23.01541 13.59918,32.49161 12.3805,15.25052 26.82245,27.8667 46.39283,32.69507 7.50396,1.85132 15.43695,2.38733 23.20507,2.66528 23.63971,0.84577 47.29425,1.27551 70.94324,1.85944 1.4502,0.0358 2.9021,0.005 4.89832,0.005 -0.66547,49.78942 -1.32404,99.06768 -2.06586,148.80719 C 849.27708,666 815.58953,666 781.43328,666 Z"
   id="path5" />


</svg>
